# xmcd
#
# Track frame offsets:
#	150
#	15584
#	28212
#	39575
#	50515
#	61909
#	73250
#	82583
#	96246
#	106717
#	119343
#	128721
#	141876
#	153217
#	163451
#	176017
#	186624
#	199068
#	212997
#	221002
#	233413
#	244981
#	258050
#	271644
#	283085
#	293392
#	303754
#
# Disc length: 4183 seconds
#
# Revision: 2
# Processed by: cddbd v1.5.2PL0 Copyright (c) Steve Scherf et al.
# Submitted via: EasyCDDAExtractor 2010.4.0.0
#
DISCID=8210551b
DTITLE=Various Artist - PIPO'S-EVOLUTION VOL-02-O ESPETÁCULO-2003
DYEAR=2003
DGENRE=FUNK
TTITLE0=DJ'S DA PIPO'S - ABERTURA PIPO'S EVOLUTION (BY DJ GILMAR SINISTRO)
TTITLE1=TAM and CULA - MONTAGEM-VEM CRISTIANE (BY DJ GILMAR SINISTRO)
TTITLE2=GORILA and PRETO - MONTAGEM-AGARRA (BY DJ GILMAR SINISTRO)
TTITLE3=TATI QUEBRA BARRACO - MONTAGEM-EU ESCULAXO (BY DJ GILMAR SINISTRO)
TTITLE4=DJ'S DA PIPO'S - MONTAGEM-BOXE NO CHÃO (BY DJ GILMAR SINISTRO)
TTITLE5=FALCÃO - MONTAGEM-CAJÁ (BY DJ GILMAR SINISTRO)
TTITLE6=TAM and CULA - MONTAGEM-NÃO BEBA UISQUE (BY DJ GILMAR SINISTRO)
TTITLE7=OS TAMAGOCHI - MONTAGEM-CHEIRO DE ''CC'' BRABO (BY DJ GILMAR SINISTRO)
TTITLE8=G3 - MONTAGEM-TAMOS AÍ (BY DJ GILMAR SINISTRO)
TTITLE9=BONDE DOS FACINHOS - MONTAGEM-POPÓ (BY DJ GILMAR SINISTRO)
TTITLE10=BOBÔ - MONTAGEM-MENGÃO (BY DJ GILMAR SINISTRO)
TTITLE11=TAM and CULA - RAP O BAILE É SÓ LASER (BY DJ GILMAR SINISTRO)
TTITLE12=MARCELO - MONTAGEM-MIKE TYSON (BY DJ GILMAR SINISTRO)
TTITLE13=CATRA and G3 - RAP QUEM NASCEU, NASCEU (BY DJ GILMAR SINISTRO)
TTITLE14=BONDE DO VINHO - MONTAGEM-MEXE REMEXE (REMIX) (BY DJ GILMAR SINISTRO)
TTITLE15=BONDE DO TIGRÃO - MONTAGEM-BACURINHA (BY DJ GILMAR SINISTRO)
TTITLE16=ALEXANDRE - MONTAGEM-GIRA A CAMISA (BY DJ GILMAR SINISTRO)
TTITLE17=DJ'S DA PIPO'S - MONTAGEM-DEIXA OS GAROTOS BRINCAR (BY DJ GILMAR SINI
TTITLE17=STRO)
TTITLE18=GIL - RAP DA PIPO'S (BY DJ GILMAR SINISTRO)
TTITLE19=MENOR DO CHAPA - RAP FAVELA CONSCIENTE (BY DJ GILMAR SINISTRO)
TTITLE20=GALO - RAP CATADOR DE LATINHA (BY DJ GILMAR SINISTRO)
TTITLE21=FALCÃO - RAP QUEM É É (BY DJ GILMAR SINISTRO)
TTITLE22=COIOTE and RAPOSÃO - RAP AINDA MORO LÁ (BY DJ GILMAR SINISTRO)
TTITLE23=OS BOMBADOS - MONTAGEM-PUXA E VAI (BY DJ GILMAR SINISTRO)
TTITLE24=WAGUINHO and CIA - MONTAGEM-TCHACO (BY DJ GILMAR SINISTRO)
TTITLE25=CLEBINHO MALUCO DOIDÃO - MONTAGEM-DA GALINHA (BY DJ GILMAR SINISTRO)
TTITLE26=MULEQUE DENGOSO - MONTAGEM-CHAMADINHA (BY DJ GILMAR SINISTRO)
EXTD=
EXTT0=
EXTT1=
EXTT2=
EXTT3=
EXTT4=
EXTT5=
EXTT6=
EXTT7=
EXTT8=
EXTT9=
EXTT10=
EXTT11=
EXTT12=
EXTT13=
EXTT14=
EXTT15=
EXTT16=
EXTT17=
EXTT18=
EXTT19=
EXTT20=
EXTT21=
EXTT22=
EXTT23=
EXTT24=
EXTT25=
EXTT26=
PLAYORDER=
